# xmcd
#
# Track frame offsets:
#	150
#	4844
#	13973
#	14711
#	31949
#	47356
#	63367
#	80875
#	100051
#	109668
#	126914
#	128821
#	143008
#	156972
#	173775
#	190909
#	199868
#	219999
#	238370
#	261214
#
# Disc length: 3561 seconds
#
# Revision: 4
# Processed by: cddbd v1.5.2PL0 Copyright (c) Steve Scherf et al.
# Submitted via: EasyCDDAExtractor 5.0.6
#
DISCID=1c0de714
DTITLE=Raekwon - The Lex Diamond Story
DYEAR=2003
DGENRE=Hip-Hop
TTITLE0=The Lex Diamond Intro
TTITLE1=Pit Bull Fights
TTITLE2=Hitman Salary Skit
TTITLE3=King Of Kings (Feat. Havoc)
TTITLE4=Missing Watch (Feat. Ghostface Killah)
TTITLE5=All Over Again
TTITLE6=Clientele Kidd (Feat. Fat Joe and Ghostface Killah)
TTITLE7=Smith Bros.
TTITLE8=Restaurant Skit
TTITLE9=Robbery (Feat. Ice Water Inc.)
TTITLE10=Fuck You Skit
TTITLE11=Pa-Blow Escablow
TTITLE12=Musketeers Of Pig Alley (Feat. Masta Killa and Inspectah Deck)
TTITLE13=Ice Cream Pt. 2 (Feat. Method Man and Cappadonna)
TTITLE14=The Hood (Feat. Tiffany Villarreal)
TTITLE15=Wild Chimpanzees Skit
TTITLE16=Planet Of The Apes (Feat. Capone and Sheek Louch)
TTITLE17=Wyld In Da Club (Feat. Ultra and Ice Water Inc.)
TTITLE18=Once Upon A Time (Feat. Tekitha)
TTITLE19=Lex Diamond Story Outro
EXTD=YEAR: 2003
EXTT0=
EXTT1=
EXTT2=
EXTT3=
EXTT4=
EXTT5=
EXTT6=
EXTT7=
EXTT8=
EXTT9=
EXTT10=
EXTT11=
EXTT12=
EXTT13=
EXTT14=
EXTT15=
EXTT16=
EXTT17=
EXTT18=
EXTT19=
PLAYORDER=
